HIERARCHY
ROOT Hips
{
	OFFSET 0.00000 0.00000 0.00000
	CHANNELS 6 Xposition Yposition Zposition Zrotation Yrotation Xrotation 
	JOINT LHipJoint
	{
		OFFSET 0 0 0
		CHANNELS 3 Zrotation Yrotation Xrotation
		JOINT LeftUpLeg
		{
			OFFSET 1.30186 -1.90722 0.65024
			CHANNELS 3 Zrotation Yrotation Xrotation
			JOINT LeftLeg
			{
				OFFSET 2.56413 -7.04489 0.00000
				CHANNELS 3 Zrotation Yrotation Xrotation
				JOINT LeftFoot
				{
					OFFSET 2.79321 -7.67428 0.00000
					CHANNELS 3 Zrotation Yrotation Xrotation
					JOINT LeftToeBase
					{
						OFFSET 0.15723 -0.43198 2.08537
						CHANNELS 3 Zrotation Yrotation Xrotation
						End Site
						{
							OFFSET 0.00000 -0.00000 1.07411
						}
					}
				}
			}
		}
	}
	JOINT RHipJoint
	{
		OFFSET 0 0 0
		CHANNELS 3 Zrotation Yrotation Xrotation
		JOINT RightUpLeg
		{
			OFFSET -1.28627 -1.90723 0.65024
			CHANNELS 3 Zrotation Yrotation Xrotation
			JOINT RightLeg
			{
				OFFSET -2.56567 -7.04913 0.00000
				CHANNELS 3 Zrotation Yrotation Xrotation
				JOINT RightFoot
				{
					OFFSET -2.75597 -7.57198 0.00000
					CHANNELS 3 Zrotation Yrotation Xrotation
					JOINT RightToeBase
					{
						OFFSET -0.17500 -0.48081 2.22901
						CHANNELS 3 Zrotation Yrotation Xrotation
						End Site
						{
							OFFSET -0.00000 -0.00000 1.14762
						}
					}
				}
			}
		}
	}
	JOINT LowerBack
	{
		OFFSET 0 0 0
		CHANNELS 3 Zrotation Yrotation Xrotation
		JOINT Spine
		{
			OFFSET -0.04522 2.07467 -0.16566
			CHANNELS 3 Zrotation Yrotation Xrotation
			JOINT Spine1
			{
				OFFSET -0.01178 2.08825 -0.05393
				CHANNELS 3 Zrotation Yrotation Xrotation
				JOINT Neck
				{
					OFFSET 0 0 0
					CHANNELS 3 Zrotation Yrotation Xrotation
					JOINT Neck1
					{
						OFFSET -0.05182 1.80489 0.16014
						CHANNELS 3 Zrotation Yrotation Xrotation
						JOINT Head
						{
							OFFSET 0.14739 1.78840 -0.33342
							CHANNELS 3 Zrotation Yrotation Xrotation
							End Site
							{
								OFFSET 0.04364 1.83899 -0.13460
							}
						}
					}
				}
				JOINT LeftShoulder
				{
					OFFSET 0 0 0
					CHANNELS 3 Zrotation Yrotation Xrotation
					JOINT LeftArm
					{
						OFFSET 3.01264 1.29090 -0.06579
						CHANNELS 3 Zrotation Yrotation Xrotation
						JOINT LeftForeArm
						{
							OFFSET 5.55680 -0.00000 0.00000
							CHANNELS 3 Zrotation Yrotation Xrotation
							JOINT LeftHand
							{
								OFFSET 3.63979 -0.00000 -0.00000
								CHANNELS 3 Zrotation Yrotation Xrotation
								JOINT LeftFingerBase
								{
									OFFSET 0 0 0
									CHANNELS 3 Zrotation Yrotation Xrotation
									JOINT LeftHandIndex1
									{
										OFFSET 0.56942 -0.00000 -0.00000
										CHANNELS 3 Zrotation Yrotation Xrotation
										End Site
										{
											OFFSET 0.45908 -0.00000 -0.00000
										}
									}
								}
								JOINT LThumb
								{
									OFFSET 0 0 0
									CHANNELS 3 Zrotation Yrotation Xrotation
									End Site
									{
										OFFSET 0.46609 -0.00000 0.46609
									}
								}
							}
						}
					}
				}
				JOINT RightShoulder
				{
					OFFSET 0 0 0
					CHANNELS 3 Zrotation Yrotation Xrotation
					JOINT RightArm
					{
						OFFSET -3.15796 1.37283 -0.36748
						CHANNELS 3 Zrotation Yrotation Xrotation
						JOINT RightForeArm
						{
							OFFSET -5.34339 -0.00000 0.00000
							CHANNELS 3 Zrotation Yrotation Xrotation
							JOINT RightHand
							{
								OFFSET -3.65101 -0.00000 -0.00000
								CHANNELS 3 Zrotation Yrotation Xrotation
								JOINT RightFingerBase
								{
									OFFSET 0 0 0
									CHANNELS 3 Zrotation Yrotation Xrotation
									JOINT RightHandIndex1
									{
										OFFSET -0.69425 -0.00000 -0.00000
										CHANNELS 3 Zrotation Yrotation Xrotation
										End Site
										{
											OFFSET -0.55972 -0.00000 -0.00000
										}
									}
								}
								JOINT RThumb
								{
									OFFSET 0 0 0
									CHANNELS 3 Zrotation Yrotation Xrotation
									End Site
									{
										OFFSET -0.56827 -0.00000 0.56827
									}
								}
							}
						}
					}
				}
			}
		}
	}
}
MOTION
Frames: 5
Frame Time: .0083333
12.2056 16.1311 -12.7487 -14.8448 62.7912 -18.2648 0.0000 0.0000 0.0000 -17.9761 -5.9898 -34.4910 11.7313 18.2748 65.1347 1.7379 -9.0339 -23.6304 0.1061 2.1006 5.7839 0.0000 0.0000 0.0000 -1.8621 3.4411 -24.4643 -6.3970 -14.8023 46.5548 0.3868 -15.7834 -17.9280 -0.0132 -0.7410 2.0365 -0.1011 1.0469 18.2082 2.0021 1.7580 7.5825 1.8207 0.9810 -2.1352 -16.2770 -21.1949 2.7169 31.0051 -28.8853 -8.1972 9.4718 -14.7700 4.4285 0.0000 -0.0000 0.0000 -57.9446 5.9073 32.5153 60.8918 -56.5429 -35.0841 -0.0000 0.0000 -5.3605 19.6585 15.0248 5.2910 -7.1250 0.0000 -0.0000 -7.4427 45.7552 -0.1395 0.0000 -0.0000 0.0000 21.2030 18.4427 -64.0382 -6.6692 11.3735 -0.6649 0.0000 0.0000 28.3666 -21.8837 12.4671 -4.9558 7.1250 -0.0000 -0.0000 3.7195 -16.5965 2.5075
12.2236 16.1093 -12.6466 -14.7678 62.3874 -18.0814 0.0000 0.0000 0.0000 -17.5487 -5.9743 -34.5424 11.8523 18.3275 65.5200 1.8065 -8.7402 -24.0934 0.0594 1.5721 4.3246 0.0000 0.0000 0.0000 -1.3083 4.1216 -23.3168 -5.6948 -14.1259 43.7442 0.4829 -17.0354 -18.9672 -0.1649 -2.6165 7.2128 -0.0578 1.1569 17.7614 1.8713 1.8897 7.5036 1.6400 1.0443 -1.9867 -16.0514 -21.1973 2.6025 30.8700 -28.9600 -7.7122 9.3653 -14.7708 4.5437 0.0000 -0.0000 0.0000 -57.3581 6.5316 31.2130 59.2368 -56.1031 -33.7068 -0.0000 0.0000 -5.1824 19.8848 15.2183 5.4236 -7.1250 0.0000 -0.0000 -7.2779 45.9856 -0.1780 0.0000 -0.0000 0.0000 21.2037 18.7418 -67.0228 -6.4469 11.0054 -0.6217 0.0000 0.0000 31.6061 -21.7367 13.0412 -5.1408 7.1250 -0.0000 -0.0000 3.8453 -15.9993 2.6425
12.2505 16.0973 -12.5380 -14.0479 61.9899 -17.4338 0.0000 0.0000 0.0000 -17.4633 -5.7885 -34.3866 11.9593 18.3734 65.8596 1.9087 -8.4016 -24.7796 0.0129 0.7331 2.0148 0.0000 0.0000 0.0000 -1.1305 5.0481 -21.7689 -4.9611 -13.3398 40.6543 0.6670 -18.0765 -18.5658 -0.2871 -3.4456 9.5219 -0.4418 1.2460 17.2130 1.6917 1.9269 7.5165 1.6731 1.0537 -1.6940 -15.9318 -21.0640 2.2248 30.5507 -28.9169 -6.7595 9.2006 -14.6620 4.7944 -0.0000 -0.0000 0.0000 -56.9691 6.9699 29.4579 56.9270 -55.4339 -31.7970 -0.0000 0.0000 -4.7422 19.9093 15.3465 5.4752 -7.1250 0.0000 -0.0000 -7.2849 46.1224 -0.2029 -0.0000 -0.0000 0.0000 21.1828 19.3940 -69.6314 -6.2657 10.7046 -0.5876 0.0000 0.0000 34.3775 -22.1939 13.5046 -5.4422 7.1250 -0.0000 -0.0000 3.5519 -15.4578 2.4816
12.2712 16.0956 -12.4254 -13.7332 61.6645 -17.1440 0.0000 0.0000 0.0000 -17.1381 -5.7633 -34.2285 12.0805 18.4245 66.2438 1.9791 -8.4517 -25.2438 0.0057 0.4864 1.3367 0.0000 0.0000 0.0000 -0.9634 6.4017 -20.0066 -4.2716 -12.5133 37.5730 0.9102 -18.9354 -16.8800 -0.2490 -3.2109 8.8665 -0.6178 1.3833 16.7675 1.6399 2.0700 7.4892 1.7021 1.1184 -1.4991 -16.3071 -21.0651 1.9064 30.4267 -29.1273 -5.7552 9.0851 -14.6694 5.2224 -0.0000 0.0000 0.0000 -56.7093 7.1760 27.8886 54.4616 -54.6438 -29.7764 -0.0000 0.0000 -4.2465 20.2152 15.7959 5.7240 -7.1250 0.0000 -0.0000 -7.1055 46.6315 -0.2875 -0.0000 0.0000 0.0000 21.1957 19.4341 -69.3130 -6.2563 10.6889 -0.5858 0.0000 0.0000 34.1219 -22.8678 13.9692 -5.8133 7.1250 -0.0000 -0.0000 3.1149 -14.8871 2.2134
12.2880 16.0988 -12.3161 -13.4913 61.2675 -16.9023 0.0000 0.0000 0.0000 -16.7609 -5.6969 -34.1318 12.2056 18.4762 66.6392 2.0477 -8.5026 -25.6888 0.0020 0.2918 0.8018 0.0000 0.0000 0.0000 -1.0901 8.4450 -18.5718 -3.8665 -11.9806 35.6635 1.0285 -17.6214 -7.3772 -0.0564 1.5330 -4.2167 -0.5372 1.5665 16.3944 1.5285 2.3095 7.4038 1.5056 1.2372 -1.3959 -16.6107 -21.1715 1.6135 30.1781 -29.4741 -4.7485 8.8979 -14.7455 5.6434 0.0000 0.0000 0.0000 -56.2447 7.7787 26.7947 52.8231 -54.0725 -28.4448 -0.0000 0.0000 -4.0584 21.1633 16.8034 6.3858 -7.1250 0.0000 -0.0000 -6.4546 47.8174 -0.4504 0.0000 0.0000 0.0000 21.4191 19.0283 -66.8202 -6.3502 10.8450 -0.6034 0.0000 0.0000 31.7865 -23.1438 13.9656 -5.8897 7.1250 -0.0000 -0.0000 2.9262 -14.8597 2.0807
